<?xml version="1.0" encoding="UTF-8"?>
<svg id="Capa_2" data-name="Capa 2" xmlns="http://www.w3.org/2000/svg" viewBox="0 0 450.53 75.14">
  <defs>
    <style>
      .cls-1 {
        fill: #fb66ff;
      }

      .cls-2 {
        fill: #f7f7f7;
      }
    </style>
  </defs>
  <g id="Capa_1-2" data-name="Capa 1">
    <path class="cls-2" d="M39.26,60.14c-2.27-.36-4.21-.48-7.97-.48H10.26c-3.37,0-5.33.07-7.77.21l-2.5.14.75-2.45c.79-2.58,1.26-4.74,1.78-8.26L8.15,11.43c.54-3.67.72-5.8.66-8.16l-.05-2.34h11.49l-.72,2.32c-.82,2.63-1.21,4.47-1.76,8.18l-5.81,39.12h20.68c3.65,0,5.54-.16,8.17-.49l2.3-.29-1.59,10.73-2.26-.36Z"/>
    <path class="cls-2" d="M43.22,59.66l.59-2.23c.85-3.19,1.25-5.11,1.66-7.91l3.35-22.54c.49-3.3.67-5.35.68-7.85v-2.28h11.11l-.66,2.28c-.74,2.53-1.15,4.52-1.65,7.85l-3.35,22.54c-.46,3.09-.62,5-.68,7.88l-.05,2.25h-11ZM50.43,11.34l1.55-10.41h10.98l-1.55,10.41h-10.98Z"/>
    <path class="cls-2" d="M79.1,60.6c-12.5,0-19.29-8.7-17.29-22.16,2.01-13.51,11.48-22.59,23.57-22.59,6.66,0,11.64,2.58,14.42,7.46.9,1.52,1.42,2.84,2,5.01l.54,2.02-9.58,2.88-.4-1.78c-1.09-4.89-3.47-6.98-7.96-6.98-6.76,0-11.75,5.3-13.02,13.84s2.3,13.55,9.24,13.55c3.44,0,6.36-1.31,8.22-3.68.74-.91,1.13-1.58,1.82-3.16l.83-1.88,9.07,2.52-1.12,2.08c-1.5,2.8-2.54,4.32-4.13,6.04-4.24,4.47-9.84,6.83-16.2,6.83Z"/>
    <path class="cls-2" d="M101.97,59.66l.59-2.23c.85-3.19,1.25-5.11,1.66-7.91l3.35-22.54c.49-3.3.67-5.36.68-7.85v-2.28h11.11l-.66,2.28c-.74,2.53-1.15,4.52-1.65,7.85l-3.35,22.54c-.46,3.09-.62,5-.68,7.88l-.05,2.25h-11ZM109.18,11.34l1.55-10.41h10.98l-1.55,10.41h-10.98Z"/>
    <path class="cls-2" d="M135.22,60.38c-3.7,0-6.48-.97-8.05-2.82s-1.96-4.31-1.37-8.33l3.53-23.78h-.88c-2.37,0-3.98.14-6.3.42l-2.28.27,1.5-10.12,2.29.42c1.86.34,3.2.4,6.07.4h.88l.11-.74c.44-3,.67-5.58.66-7.69v-2.3s11.14,0,11.14,0l-.7,2.31c-.64,2.1-1.15,4.54-1.62,7.68l-.11.74h1.46c3.36,0,4.75-.08,7.12-.41l2.33-.33-1.5,10.11-2.26-.36c-2.18-.35-3.92-.41-6.98-.41h-1.46l-3.42,23.06c-.29,1.95-.06,2.34,0,2.4.35.41,1.07.64,2.02.64,1.35,0,2.48-.24,4.89-1.58l2.38-1.32,1.53,9.22-1.79.7c-3.33,1.3-5.9,1.81-9.17,1.81Z"/>
    <path class="cls-2" d="M160.85,60.38c-9.1,0-14.01-4.96-12.82-12.94,1-6.74,5.9-11.62,13.8-13.74,4.38-1.21,7.9-1.66,15.38-1.89l.33-2.23c.37-2.52,0-5.42-6.27-5.42-3.42,0-6,.81-7.86,2.49-.75.7-1.32,1.43-2.28,3.42l-.82,1.7-9.35-2.11,1.18-2.18c1.97-3.64,3.34-5.39,5.64-7.18,3.73-3.04,8.69-4.6,14.68-4.6,14.27,0,15.12,8.65,14.35,13.81l-3,20.23c-.45,3.05-.58,4.76-.58,7.62v2.3s-10.15,0-10.15,0l.43-2.89c-1.4.89-2.63,1.47-4.21,2.04-2.84,1.03-5.76,1.57-8.44,1.57ZM175.98,40.06c-7.07.24-10.58.74-13.41,1.87-3.12,1.21-4.69,2.93-5.08,5.57-.6,4.04,3.27,4.48,4.97,4.48,3.59,0,7.89-1.79,10.7-4.46,1.41-1.32,2.05-2.28,2.43-4.85l.39-2.62Z"/>
    <path class="cls-2" d="M210.28,60.6c-8.69,0-14.85-2.65-17.82-7.65-1.66-2.79-2.2-5.32-2.21-10.4v-2.03s10.6-1.32,10.6-1.32l-.18,2.13c-.27,3.11-.06,4.47.92,6.02,1.61,2.68,5.19,4.2,9.82,4.2,3.53,0,11.88-.85,13.05-8.73.42-2.8-.34-4.8-2.26-5.95-1.95-1.23-2.56-1.41-10.86-3.33-4.34-.92-7.28-1.98-9.81-3.52-4.63-2.85-6.62-7.39-5.77-13.12,1.5-10.11,10.72-16.91,22.94-16.91,7.81,0,13.49,2.57,16.41,7.42,1.45,2.34,2,4.39,2.27,8.41l.14,2.1-10.26,1.44-.1-1.85c-.14-2.61-.44-3.75-1.35-5.1-1.56-2.25-4.54-3.45-8.6-3.45-6.34,0-11.07,3.13-11.76,7.79-.29,1.98-.09,4.48,4.09,6.28q1.6.69,8.66,2.28l.94.21c12.02,2.64,16.55,7.77,15.16,17.15-1.67,11.22-10.65,17.91-24.03,17.91Z"/>
    <path class="cls-2" d="M255.49,60.67c-12.41,0-19.13-8.78-17.11-22.38,1.99-13.38,11.3-22.38,23.18-22.38,10.37,0,16.82,6.64,16.83,17.33l-.05,1.01c-.06,1.23-.16,3.2-.27,4.68l-.16,2.15h-30.33c-.17,3.17.22,5.05,1.32,6.88,1.56,2.69,4.3,4.1,7.94,4.1,4.99,0,8.61-2.33,11.06-7.11l.99-1.94,8.37,3.56-1.14,1.9c-1.85,3.08-3.1,4.61-5.34,6.57-4.37,3.74-9.51,5.63-15.28,5.63ZM268.92,32.55c-.15-2.35-.79-3.97-2.07-5.42-1.59-1.8-3.79-2.68-6.71-2.68-3.66,0-6.94,1.85-9.24,5.21-.7.99-1.14,1.76-1.58,2.89h19.6Z"/>
    <path class="cls-2" d="M295.24,75.14c-7.65,0-12.32-2.2-16.65-7.85l-1.29-1.68,8.91-5.67.93,1.57c.76,1.29,1.01,1.62,1.58,2.11l.1.09c2.01,2,4.45,2.89,7.91,2.89,5.48,0,9.4-2.22,11.63-6.6.49-.99.9-2.15,1.36-3.98-3.38,2.4-7.74,3.71-12.4,3.71-12.02,0-18.53-8.47-16.58-21.59,1.99-13.38,11.2-22.02,23.49-22.02,4.71,0,8.42,1.3,11.1,3.88l.47-3.16h10.03l-.62,2.25c-.71,2.58-1.14,4.4-1.65,7.81l-3.83,25.78c-1.11,7.47-3.29,12.49-7.07,16.27-4.01,3.98-10.19,6.18-17.42,6.18ZM303.24,24.67c-6.82,0-11.64,5.04-12.89,13.48s1.97,13.05,8.52,13.05c7.1,0,12.48-5.35,13.7-13.63s-2.39-12.91-9.33-12.91Z"/>
    <path class="cls-2" d="M341.35,60.38c-5.83,0-10.18-2.21-12.26-6.22-1.2-2.53-1.51-5.7-.95-9.46l2.64-17.79c.48-3.24.69-5.63.67-7.76l-.02-2.31h11.12l-.66,2.28c-.69,2.38-1.19,4.72-1.65,7.85l-2.49,16.78c-.79,5.31,1.07,8.01,5.52,8.01,3.51,0,6.53-1.55,9.49-4.88,1.95-2.19,2.87-3.67,3.85-6.24l2.03-13.67c.46-3.09.67-5.51.68-7.85v-2.28h11.03l-.66,2.28c-.71,2.44-1.17,4.64-1.65,7.85l-3.35,22.54c-.47,3.14-.61,5.04-.61,7.84v2.3s-10.29,0-10.29,0l.57-3.87c-3.79,3.11-8.03,4.59-13.01,4.59Z"/>
    <path class="cls-2" d="M369.76,59.66l.57-2.22c.82-3.19,1.23-5,1.67-7.92l3.35-22.54c.55-3.69.66-5.55.68-7.86l.02-2.28h10.27l-.41,2.77c.28-.19.56-.38.86-.56,3.39-2.03,6.33-2.86,10.17-2.86,2.32,0,3.62.16,6.64.68l2.15.37-4.2,9.67-1.87-.62c-2.56-.85-3.6-.99-5.08-.99-3.03,0-5.65,1.21-7.79,3.59-1.79,1.94-2.5,3.31-3.17,6.09l-2.17,14.6c-.44,2.99-.61,4.96-.67,7.81l-.05,2.25h-10.98Z"/>
    <path class="cls-1" d="M434.56,41.08l10.06-11.86c-.61-3.05-1.85-5.65-3.67-7.72l-6.63,7.8c1.08,2.27,1.39,5.28.85,8.91-.15,1.01-.35,1.96-.61,2.87ZM444.98,31.9l-12.27,14.47c-.26.3-.53.57-.82.81-.22.23-.47.45-.72.65-.14.11-.29.21-.44.3-2.35,2.45-5.5,3.78-9.21,3.78-7.31,0-10.91-5.15-9.63-13.77,1.27-8.57,6.45-13.69,13.86-13.69,3.29,0,5.81,1.08,7.45,3.08l6.33-7.45c-3.08-2.69-7.38-4.17-12.66-4.17-12.9,0-22.53,8.78-24.55,22.38-2.01,13.55,5.05,22.3,17.99,22.3s22.41-8.99,24.4-22.38c.33-2.24.42-4.36.27-6.31Z"/>
    <path class="cls-1" d="M450.5,21.24c-.09.7-.37,1.39-.86,1.97l-5.02,6.01-10.06,11.86-3.39,4c-.19.24-.41.45-.65.62-.17.2-.36.38-.57.55-.71.54-1.54.8-2.37.8-1.17,0-2.32-.52-3.08-1.52l-8.4-8.24c-1.3-1.7-.98-4.14.72-5.45.71-.54,1.54-.8,2.37-.8.17,0,.34.01.51.03.98.13,1.92.64,2.57,1.49l5.49,4.46,6.56-7.72,6.63-7.8,2.71-3.25c.39-.47.86-.82,1.37-1.05.71-.33,1.51-.43,2.28-.3.65.11,1.28.39,1.82.84,1.07.88,1.54,2.22,1.37,3.5Z"/>
  </g>
</svg>